<svg width="253" height="64" viewBox="0 0 253 64" fill="none" xmlns="http://www.w3.org/2000/svg">
<g clip-path="url(#clip0_924_368)">
<path fill-rule="evenodd" clip-rule="evenodd" d="M180.837 9.221H160.744V15.3162H180.837V9.221Z" fill="#58C7D5"/>
<path fill-rule="evenodd" clip-rule="evenodd" d="M180.837 23.7558H160.744V29.851H180.837V23.7558Z" fill="#12B2BA"/>
<path fill-rule="evenodd" clip-rule="evenodd" d="M180.837 38.0562H160.744V44.1514H180.837V38.0562Z" fill="white"/>
<path d="M91.1612 44.1514H81.7011L66.4554 17.7387H66.2209C66.5336 22.4273 66.69 25.7094 66.69 27.7411V44.2295H60.0444V9.221H69.4264L84.5939 35.3993H84.7502C84.5157 30.8669 84.3593 27.663 84.3593 25.7875V9.221H91.0049V44.1514H91.1612Z" fill="white"/>
<path d="M121.34 44.1514L118.838 35.8681H106.094L103.592 44.2295H95.6177L107.892 9.06471H116.962L129.393 44.1514H121.34ZM117.04 29.6166C114.694 22.0366 113.365 17.8168 113.052 16.801C112.74 15.7851 112.583 15.0037 112.427 14.4567C111.88 16.4884 110.394 21.5678 107.892 29.6166H117.04Z" fill="white"/>
<path d="M154.411 34.4615C154.411 37.5873 153.238 40.0879 150.971 41.8852C148.704 43.6825 145.498 44.6203 141.511 44.6203C137.758 44.6203 134.475 43.917 131.582 42.5104V35.6337C133.927 36.6496 135.96 37.431 137.602 37.8217C139.244 38.2906 140.729 38.4469 142.058 38.4469C143.7 38.4469 144.951 38.1343 145.811 37.5092C146.671 36.884 147.14 35.9463 147.14 34.696C147.14 33.9927 146.906 33.3675 146.593 32.8987C146.202 32.3516 145.655 31.8828 144.873 31.3358C144.091 30.8669 142.606 30.0855 140.338 28.9915C138.227 27.9756 136.585 27.0379 135.491 26.1001C134.396 25.1624 133.536 24.0684 132.911 22.8962C132.285 21.6459 131.973 20.2393 131.973 18.5983C131.973 15.4725 132.989 13.0501 135.1 11.3309C137.211 9.53358 140.104 8.674 143.778 8.674C145.577 8.674 147.297 8.90843 149.017 9.29915C150.658 9.76801 152.378 10.315 154.177 11.0965L151.753 16.8791C149.877 16.0977 148.313 15.5507 147.14 15.3162C145.889 15.0037 144.717 14.8474 143.544 14.8474C142.136 14.8474 141.042 15.16 140.338 15.8632C139.556 16.4884 139.244 17.348 139.244 18.442C139.244 19.0672 139.4 19.6923 139.713 20.1612C140.026 20.63 140.495 21.0989 141.12 21.5678C141.746 22.0366 143.387 22.8181 145.811 23.9902C149.095 25.5531 151.362 27.116 152.535 28.6789C153.786 30.2418 154.411 32.1954 154.411 34.4615Z" fill="white"/>
<path d="M208.279 44.1514H188.186V9.221H208.279V15.3162H195.614V22.9744H207.419V29.0696H195.614V38.0562H208.279V44.1514Z" fill="white"/>
<path d="M230.405 44.1514L221.961 16.7228H221.727C222.039 22.2711 222.196 26.022 222.196 27.8974V44.1514H215.55V9.221H225.636L234.001 35.9463H234.158L242.914 9.221H253V44.1514H246.12V27.663C246.12 26.8816 246.12 25.9438 246.198 24.928C246.198 23.9121 246.354 21.177 246.511 16.801H246.276L237.285 44.1514H230.405Z" fill="white"/>
<path fill-rule="evenodd" clip-rule="evenodd" d="M21.5003 52.8254C21.8912 52.8254 22.2039 52.5128 22.2039 52.1221C22.2039 51.7314 21.8912 51.4188 21.5003 51.4188C21.1094 51.4188 20.7966 51.7314 20.7966 52.1221C20.7966 52.5128 21.1094 52.8254 21.5003 52.8254Z" fill="#58C7D5"/>
<path fill-rule="evenodd" clip-rule="evenodd" d="M25.5657 52.7472C25.1748 52.7472 24.8621 52.4347 24.8621 52.044C24.8621 51.6532 25.1748 51.3407 25.5657 51.3407C25.9566 51.3407 26.2694 51.6532 26.2694 52.044C26.2694 52.4347 25.9566 52.7472 25.5657 52.7472Z" fill="#58C7D5"/>
<path fill-rule="evenodd" clip-rule="evenodd" d="M21.813 0.625153C21.4221 0.625153 21.1094 0.937729 21.1094 1.32845C21.1094 1.71917 21.4221 2.03175 21.813 2.03175C22.2039 2.03175 22.5167 1.71917 22.5167 1.32845C22.5167 0.937729 22.2039 0.625153 21.813 0.625153Z" fill="#58C7D5"/>
<path fill-rule="evenodd" clip-rule="evenodd" d="M25.5657 0.781441C25.1748 0.781441 24.8621 1.09402 24.8621 1.48474C24.8621 1.87546 25.1748 2.18803 25.5657 2.18803C25.9566 2.18803 26.2694 1.87546 26.2694 1.48474C26.2694 1.09402 25.9566 0.781441 25.5657 0.781441Z" fill="#58C7D5"/>
<path fill-rule="evenodd" clip-rule="evenodd" d="M46.4407 37.0403C46.0498 37.0403 45.7371 37.3529 45.7371 37.7436C45.7371 38.1343 46.0498 38.4469 46.4407 38.4469C46.8316 38.4469 47.1444 38.1343 47.1444 37.7436C47.1444 37.3529 46.8316 37.0403 46.4407 37.0403Z" fill="#58C7D5"/>
<path fill-rule="evenodd" clip-rule="evenodd" d="M44.4861 40.4005C44.0952 40.4005 43.7825 40.7131 43.7825 41.1038C43.7825 41.4945 44.0952 41.8071 44.4861 41.8071C44.877 41.8071 45.1898 41.4945 45.1898 41.1038C45.1898 40.7131 44.877 40.4005 44.4861 40.4005Z" fill="#58C7D5"/>
<path fill-rule="evenodd" clip-rule="evenodd" d="M27.9894 33.9927L27.5985 29.7729L24.4712 27.9756L24.8621 27.3504L46.8315 40.1661L46.4406 40.7912L42.5315 38.525L42.766 41.1038L41.2805 41.2601L40.9678 37.5873L39.7951 36.9621L40.186 41.4164L38.7005 41.5726L38.1532 36.1026L36.9805 35.3993L37.5277 41.7289L36.0423 41.8852L35.8859 40.0879L35.3386 34.3834L34.1659 33.6801L34.4786 36.7277L32.9931 36.884L32.6022 32.7424L31.8204 32.2735L27.9894 33.9927ZM32.1331 26.8034L28.3022 28.5226L25.1748 26.7253L24.7839 27.3504L46.7533 40.1661L47.1442 39.5409L43.2351 37.2747L45.6588 36.1807L45.0333 34.8523L41.6714 36.337L40.4987 35.7118L44.5642 33.9145L43.9387 32.5861L38.935 34.8523L37.7623 34.149L43.5478 31.5702L42.9224 30.2418L41.2805 30.9451L36.1986 33.2112L35.0259 32.5079L37.8405 31.2576L37.215 29.9292L33.4622 31.6483L32.6804 31.1795L32.1331 26.8034ZM29.8658 29.4603L30.804 28.9914L30.8822 30.0855L29.8658 29.4603ZM29.1622 30.7106L29.2404 31.8046L30.1785 31.3358L29.1622 30.7106Z" fill="#58C7D5"/>
<path fill-rule="evenodd" clip-rule="evenodd" d="M30.2567 35.0867C30.4912 34.7741 30.3349 34.3053 30.0221 34.0708C29.7094 33.8364 29.2403 33.9927 29.0058 34.3053C28.7712 34.6178 28.9276 35.0867 29.2403 35.3211C29.6312 35.5556 30.1003 35.4774 30.2567 35.0867ZM31.9767 34.3834C32.2113 34.0708 32.0549 33.602 31.7422 33.3675C31.4294 33.1331 30.9603 33.2894 30.7258 33.602C30.4912 33.9145 30.6476 34.3834 30.9603 34.6178C31.3512 34.7741 31.8203 34.696 31.9767 34.3834Z" fill="#58C7D5"/>
<path fill-rule="evenodd" clip-rule="evenodd" d="M34.2442 28.2882C34.0097 28.6007 33.6188 28.757 33.2279 28.5226C32.9151 28.2882 32.7588 27.8974 32.9933 27.5067C33.2279 27.1941 33.6188 27.0379 34.0097 27.2723C34.3224 27.5067 34.4788 27.8974 34.2442 28.2882ZM34.4788 30.1636C34.2442 30.4762 33.8533 30.6325 33.4624 30.398C33.1497 30.1636 32.9933 29.7729 33.2279 29.3822C33.4624 29.0696 33.8533 28.9133 34.2442 29.1477C34.557 29.3822 34.6351 29.7729 34.4788 30.1636Z" fill="#58C7D5"/>
<path fill-rule="evenodd" clip-rule="evenodd" d="M0.234473 15.16C0.469022 14.8474 0.859936 14.6911 1.17267 14.9255C1.4854 15.16 1.64177 15.5507 1.40722 15.8632C1.17267 16.1758 0.781753 16.3321 0.469022 16.0977C0.0781069 15.9414 -7.6063e-05 15.5507 0.234473 15.16Z" fill="#58C7D5"/>
<path fill-rule="evenodd" clip-rule="evenodd" d="M13.1348 25.0842C13.3693 24.7717 13.7602 24.6154 14.1511 24.8498C14.4639 25.0842 14.6202 25.475 14.3857 25.8657C14.1511 26.1783 13.7602 26.3346 13.3693 26.1001C13.0566 25.8657 12.9002 25.475 13.1348 25.0842ZM12.9002 23.2088C13.1348 22.8962 13.5257 22.7399 13.9166 22.9744C14.2293 23.2088 14.3857 23.5995 14.1511 23.9902C13.9166 24.3028 13.5257 24.4591 13.1348 24.2247C12.822 23.9902 12.7438 23.5995 12.9002 23.2088Z" fill="#58C7D5"/>
<path fill-rule="evenodd" clip-rule="evenodd" d="M2.11098 11.8779C1.87643 12.1905 2.03279 12.6593 2.34553 12.8156C2.65826 13.0501 3.12736 12.8938 3.28372 12.5812C3.51827 12.2686 3.3619 11.7998 3.04917 11.6435C2.73644 11.409 2.34553 11.5653 2.11098 11.8779Z" fill="#58C7D5"/>
<path fill-rule="evenodd" clip-rule="evenodd" d="M19.3894 19.3797L19.7804 23.5995L22.9077 25.3968L22.5168 26.022L0.625534 13.2064L1.01645 12.5812L4.9256 14.8474L4.69105 12.2686L6.17652 12.1123L6.48925 15.7851L7.662 16.4103L7.27108 11.956L8.75656 11.7998L9.30384 17.2698L10.4766 17.9731L9.9293 11.6435L11.4148 11.4872L11.5711 13.2845L12.1184 18.8327L13.2912 19.536L12.9784 16.4884L14.4639 16.3321L14.8548 20.4738L15.6367 20.9426L19.3894 19.3797ZM15.2457 26.569L19.0767 24.8498L22.204 26.6471L22.5949 26.022L0.625534 13.2064L0.234619 13.8315L4.14377 16.0977L1.7201 17.1917L2.34556 18.5202L5.70743 17.0354L6.88017 17.6606L2.81466 19.536L3.44012 20.8645L8.44383 18.5983L9.61657 19.3016L3.90922 21.9585L4.53468 23.2869L6.17652 22.5836L11.2584 20.3175L12.4312 21.0208L9.61657 22.2711L10.242 23.5995L13.9948 21.8803L14.7766 22.3492L15.2457 26.569ZM17.5131 23.9121L16.5749 24.381L16.4185 23.2869L17.5131 23.9121ZM18.2167 22.6618L18.1385 21.5678L17.2003 22.0366L18.2167 22.6618Z" fill="#58C7D5"/>
<path fill-rule="evenodd" clip-rule="evenodd" d="M17.122 18.2857C16.8875 18.5983 17.0438 19.0672 17.3566 19.3016C17.6693 19.536 18.1384 19.3797 18.3729 19.0672C18.6075 18.7546 18.4511 18.2857 18.1384 18.0513C17.7475 17.8168 17.2784 17.895 17.122 18.2857ZM15.402 18.989C15.1674 19.3016 15.3238 19.7704 15.6365 20.0049C15.9493 20.2393 16.4184 20.083 16.6529 19.7704C16.8875 19.4579 16.7311 18.989 16.4184 18.7546C16.0275 18.5983 15.5584 18.6764 15.402 18.989Z" fill="#58C7D5"/>
<path fill-rule="evenodd" clip-rule="evenodd" d="M27.9114 19.3016L24.4714 21.7241V25.3187H23.6896L23.8459 0H24.6277V4.53236L26.7387 3.04762L27.5987 4.29792L24.5496 6.40781V7.73626L28.146 5.07937L29.006 6.32967L24.4714 9.53358V10.9402L29.7096 7.2674L30.5697 8.5177L29.0842 9.53358L24.4714 12.7375V14.1441L26.9732 12.3468L27.8332 13.5971L24.4714 15.9414V16.801L27.9114 19.3016ZM19.5459 19.3016L22.9859 21.8022V25.3968H23.7677L23.8459 0H23.0641V4.53236L20.9531 2.96948L20.0931 4.14164L23.0641 6.32967V7.65812L19.4677 5.07937L18.5295 6.25153L22.9859 9.45543V10.862L17.8258 7.18926L16.9658 8.36142L18.4513 9.37729L22.9859 12.6593V14.0659L20.4841 12.2686L19.624 13.4408L22.9859 15.8632V16.7228L19.5459 19.3016ZM22.9859 19.9267L22.1259 19.3016L22.9859 18.6764V19.9267ZM24.4714 19.9267L25.3314 19.3016L24.4714 18.6764V19.9267Z" fill="#58C7D5"/>
<path fill-rule="evenodd" clip-rule="evenodd" d="M27.6767 16.801C27.2858 16.801 26.973 17.1136 26.973 17.5043C26.973 17.895 27.2858 18.2076 27.6767 18.2076C28.0676 18.2076 28.3803 17.895 28.3803 17.5043C28.4585 17.1136 28.0676 16.801 27.6767 16.801ZM26.1912 15.707C25.8003 15.707 25.4875 16.0195 25.4875 16.4103C25.4875 16.801 25.8003 17.1136 26.1912 17.1136C26.5821 17.1136 26.8948 16.801 26.8948 16.4103C26.8948 16.0195 26.5821 15.707 26.1912 15.707Z" fill="#58C7D5"/>
<path fill-rule="evenodd" clip-rule="evenodd" d="M19.7803 16.7228C20.1712 16.7228 20.484 17.0354 20.484 17.4261C20.484 17.8168 20.1712 18.1294 19.7803 18.1294C19.3894 18.1294 19.0767 17.8168 19.0767 17.4261C19.0767 17.0354 19.3894 16.7228 19.7803 16.7228ZM21.2658 15.6288C21.6567 15.6288 21.9694 15.9414 21.9694 16.3321C21.9694 16.7228 21.6567 17.0354 21.2658 17.0354C20.8749 17.0354 20.5621 16.7228 20.5621 16.3321C20.5621 15.9414 20.8749 15.6288 21.2658 15.6288Z" fill="#58C7D5"/>
<path fill-rule="evenodd" clip-rule="evenodd" d="M27.5985 36.6496C27.2076 36.6496 26.8949 36.337 26.8949 35.9463C26.8949 35.5556 27.2076 35.243 27.5985 35.243C27.9895 35.243 28.3022 35.5556 28.3022 35.9463C28.3022 36.337 27.9895 36.6496 27.5985 36.6496ZM26.1131 37.7436C25.7222 37.7436 25.4094 37.431 25.4094 37.0403C25.4094 36.6496 25.7222 36.337 26.1131 36.337C26.504 36.337 26.8167 36.6496 26.8167 37.0403C26.8167 37.431 26.504 37.7436 26.1131 37.7436Z" fill="#58C7D5"/>
<path fill-rule="evenodd" clip-rule="evenodd" d="M19.4675 34.0708L22.9076 31.6484V28.0537H23.6894L23.5331 53.4506H22.7512V48.9182L20.6403 50.4029L19.7803 49.1526L22.8294 47.0427V45.7143L19.233 48.293L18.373 47.0427L22.9076 43.8388V42.4322L17.6693 46.105L16.8093 44.8547L18.2948 43.8388L22.9076 40.6349V39.2283L20.4057 41.0256L19.5457 39.7753L22.9076 37.431V36.5714L19.4675 34.0708ZM27.8331 34.0708L24.3931 31.5702V27.9756H23.6112L23.4549 53.3724H24.2367V48.84L26.3476 50.4029L27.2077 49.2308L24.2367 47.0427V45.7143L27.8331 48.293L28.6931 47.1209L24.2367 43.917V42.5104L29.3968 46.1831L30.2568 45.011L28.9277 43.917L24.3931 40.6349V39.2283L26.8949 41.0256L27.7549 39.8535L24.3931 37.431V36.5714L27.8331 34.0708ZM24.3931 33.4457L25.2531 34.0708L24.3931 34.696V33.4457ZM22.9076 33.4457L22.0476 34.0708L22.9076 34.696V33.4457Z" fill="#58C7D5"/>
<path fill-rule="evenodd" clip-rule="evenodd" d="M19.702 36.5714C20.0929 36.5714 20.4056 36.2589 20.4056 35.8681C20.4056 35.4774 20.0929 35.1648 19.702 35.1648C19.3111 35.1648 18.9983 35.4774 18.9983 35.8681C18.9202 36.2589 19.3111 36.5714 19.702 36.5714ZM21.1875 37.6654C21.5784 37.6654 21.8911 37.3529 21.8911 36.9621C21.8911 36.5714 21.5784 36.2589 21.1875 36.2589C20.7966 36.2589 20.4838 36.5714 20.4838 36.9621C20.4838 37.3529 20.7966 37.6654 21.1875 37.6654Z" fill="#58C7D5"/>
<path fill-rule="evenodd" clip-rule="evenodd" d="M0.0781829 37.978C0.234549 38.2906 0.703646 38.4469 1.01638 38.2124C1.32911 38.0562 1.48548 37.5873 1.25093 37.2747C1.09456 36.9621 0.625464 36.8059 0.312732 37.0403C0 37.1966 -0.0781829 37.5873 0.0781829 37.978Z" fill="#58C7D5"/>
<path fill-rule="evenodd" clip-rule="evenodd" d="M15.2456 26.7253L19.0765 28.5226L22.2038 26.7253L22.5948 27.3504L0.547165 39.9316L0.15625 39.3065L4.0654 37.0403L1.71991 35.9463L2.34537 34.5397L5.70724 36.1026L6.87998 35.4774L2.73629 33.602L3.36175 32.2735L8.36546 34.5397L9.61639 33.8364L3.83085 31.1795L4.45631 29.851L6.09815 30.6325L11.18 32.9768L12.3528 32.2735L9.5382 31.0232L10.1637 29.6947L13.9164 31.4139L14.6983 30.9451L15.2456 26.7253ZM19.3893 33.9927L19.7802 29.7729L22.9075 27.9756L22.5948 27.3504L0.547165 39.9316L0.938079 40.5568L4.84723 38.2906L4.61268 40.8693L6.09815 41.0256L6.48907 37.3529L7.58363 36.7277L7.11453 41.1819L8.60001 41.3382L9.14729 35.8681L10.3982 35.1648L9.69457 41.4164L11.18 41.5726L11.3364 39.7753L11.8837 34.2271L13.0564 33.5238L12.7437 36.5714L14.2292 36.7277L14.6201 32.6642L15.4019 32.1954L19.3893 33.9927ZM18.2165 30.7106L18.1383 31.8046L17.2001 31.3358L18.2165 30.7106ZM17.4347 29.3822L16.4965 28.9133L16.4183 30.0073L17.4347 29.3822Z" fill="#58C7D5"/>
<path fill-rule="evenodd" clip-rule="evenodd" d="M13.0567 28.1319C13.2912 28.4445 13.6821 28.6007 14.073 28.3663C14.3858 28.1319 14.5421 27.7412 14.3076 27.3504C14.073 27.0379 13.6821 26.8816 13.2912 27.116C12.9785 27.3504 12.9003 27.8193 13.0567 28.1319ZM12.9003 30.0073C13.1348 30.3199 13.5257 30.4762 13.9167 30.2418C14.2294 30.0073 14.3858 29.6166 14.1512 29.2259C13.9167 28.9133 13.5257 28.757 13.1348 28.9915C12.8221 29.2259 12.6657 29.6948 12.9003 30.0073Z" fill="#58C7D5"/>
<path fill-rule="evenodd" clip-rule="evenodd" d="M1.95465 41.2601C1.79828 40.9475 1.87646 40.4786 2.1892 40.3223C2.50193 40.1661 2.97103 40.2442 3.12739 40.5568C3.28376 40.8694 3.20557 41.3382 2.89284 41.4945C2.58011 41.7289 2.1892 41.6508 1.95465 41.2601Z" fill="#58C7D5"/>
<path fill-rule="evenodd" clip-rule="evenodd" d="M17.0439 35.0867C16.8093 34.7741 16.9657 34.3052 17.2784 34.0708C17.5912 33.8364 18.0603 33.9927 18.2948 34.3052C18.5294 34.6178 18.373 35.0867 18.0603 35.3211C17.6694 35.5556 17.2003 35.3993 17.0439 35.0867ZM15.3239 34.3052C15.0893 33.9927 15.2457 33.5238 15.5584 33.2894C15.8711 33.0549 16.3402 33.2112 16.5748 33.5238C16.8093 33.8364 16.653 34.3052 16.3402 34.5397C15.9493 34.7741 15.4802 34.6178 15.3239 34.3052Z" fill="#58C7D5"/>
<path fill-rule="evenodd" clip-rule="evenodd" d="M30.335 18.2857C30.5696 18.5983 30.4132 19.0672 30.1005 19.3016C29.7878 19.536 29.3187 19.3797 29.0841 19.0672C28.8496 18.7546 29.0059 18.2857 29.3187 18.0513C29.7096 17.8169 30.1787 17.9731 30.335 18.2857ZM32.0551 19.0672C32.2896 19.3797 32.1333 19.8486 31.8205 20.083C31.5078 20.3175 31.0387 20.1612 30.8041 19.8486C30.5696 19.536 30.726 19.0672 31.0387 18.8327C31.4296 18.5983 31.8987 18.7546 32.0551 19.0672Z" fill="#58C7D5"/>
<path fill-rule="evenodd" clip-rule="evenodd" d="M47.3006 15.3944C47.1442 15.0818 46.6751 14.9255 46.3624 15.1599C46.0496 15.3162 45.8933 15.7851 46.1278 16.0977C46.2842 16.4103 46.7533 16.5665 47.066 16.3321C47.3788 16.1758 47.4569 15.7851 47.3006 15.3944Z" fill="#58C7D5"/>
<path fill-rule="evenodd" clip-rule="evenodd" d="M32.1331 26.6471L28.3021 24.8498L25.1748 26.6471L47.2224 14.0659L43.3132 16.3321L45.7369 17.4261L45.1115 18.7546L41.7496 17.1917L40.5768 17.8168L44.6424 19.6923L44.0169 21.0989L39.0132 18.8327L37.7623 19.536L43.5478 22.1929L42.9223 23.5214L41.2805 22.7399L36.1986 20.3956L34.9477 21.0989L37.7623 22.3492L37.1368 23.6777L33.384 21.9585L32.6022 22.4274L32.1331 26.6471ZM29.944 23.9902L30.8822 24.4591L30.9603 23.3651L29.944 23.9902Z" fill="#58C7D5"/>
<path fill-rule="evenodd" clip-rule="evenodd" d="M45.4243 12.1123C45.5806 12.4249 45.5024 12.8938 45.1897 13.0501C44.877 13.2064 44.4079 13.1282 44.2515 12.8156C44.0952 12.5031 44.1733 12.0342 44.4861 11.8779C44.7988 11.6435 45.1897 11.7216 45.4243 12.1123Z" fill="white"/>
<path fill-rule="evenodd" clip-rule="evenodd" d="M34.3224 25.2405C34.0878 24.928 33.6969 24.7717 33.306 25.0061C32.9932 25.2405 32.8369 25.6313 33.0714 26.022C33.306 26.3346 33.6969 26.4908 34.0878 26.2564C34.4005 26.022 34.4787 25.5531 34.3224 25.2405ZM34.4787 23.3651C34.2442 23.0525 33.8533 22.8962 33.4623 23.1307C33.1496 23.3651 32.9932 23.7558 33.2278 24.1465C33.4623 24.4591 33.8533 24.6154 34.2442 24.381C34.5569 24.1465 34.7133 23.6777 34.4787 23.3651Z" fill="white"/>
<path fill-rule="evenodd" clip-rule="evenodd" d="M27.9894 19.3797L27.5985 23.5995L24.4712 25.3968L25.1748 26.7253L47.2224 14.0659L46.5188 12.7375L42.6096 15.0037L42.8442 12.4249L41.3587 12.2686L40.9678 15.9414L39.795 16.5665L40.2641 12.1123L38.7787 11.956L38.2314 17.4261L36.9805 18.1294L37.6059 11.7998L36.1205 11.6435L35.9641 13.4408L35.4168 18.989L34.2441 19.6923L34.5568 16.6447L33.0713 16.4884L32.6804 20.5519L31.8986 21.0208L27.9894 19.3797ZM29.1622 22.6618L29.2404 21.5678L30.1785 22.0366L29.1622 22.6618Z" fill="white"/>
<path d="M68.4882 61.4994C67.9409 63.0623 66.5336 64 64.7354 64C63.4063 64 62.4681 63.6093 61.7644 62.8278C61.0608 62.0464 60.748 61.1087 60.748 59.8584V57.1233C60.748 55.9512 61.0608 55.0134 61.7644 54.232C62.4681 53.4506 63.4845 53.0598 64.7354 53.0598C66.6118 53.0598 67.9409 53.9976 68.4882 55.5604L66.69 56.2637C66.4554 55.4042 65.6736 54.8571 64.6572 54.8571C63.9535 54.8571 63.4844 55.0916 63.0935 55.5604C62.7026 56.0293 62.5463 56.4982 62.5463 57.1233V60.0147C62.5463 60.6398 62.7026 61.1868 63.0935 61.6557C63.4844 62.1245 64.0317 62.359 64.6572 62.359C65.6736 62.359 66.3772 61.812 66.69 60.8742L68.4882 61.4994Z" fill="#58C7D5"/>
<path d="M83.4992 54.1538C84.2029 54.9353 84.5938 55.873 84.5938 57.1233V59.8584C84.5938 61.1087 84.2029 62.1245 83.4992 62.8278C82.7956 63.6093 81.7792 63.9219 80.6065 63.9219C79.3555 63.9219 78.3392 63.5311 77.6355 62.7497C76.9319 61.9683 76.6191 60.9524 76.6191 59.8584V57.1233C76.6191 55.9512 76.9319 55.0134 77.6355 54.232C78.3392 53.4506 79.3555 53.0598 80.6065 53.0598C81.7792 53.0598 82.7956 53.4506 83.4992 54.1538ZM79.0428 55.4823C78.6519 55.9512 78.4955 56.42 78.4955 57.0452V59.9365C78.4955 60.5617 78.6519 61.1087 79.0428 61.5775C79.4337 62.0464 79.981 62.2808 80.6065 62.2808C81.8574 62.2808 82.7174 61.3431 82.7174 59.9365V57.0452C82.7174 55.7949 81.8574 54.779 80.6065 54.779C79.9028 54.779 79.3555 55.0134 79.0428 55.4823Z" fill="#58C7D5"/>
<path d="M100.778 63.9219H93.585V53.138H95.4614V62.2027H100.778V63.9219Z" fill="#58C7D5"/>
<path d="M109.3 53.138H113.209C115.007 53.138 116.258 53.8413 116.883 55.1697C117.196 55.7167 117.274 56.8107 117.274 58.3736C117.274 60.0928 117.118 61.1868 116.883 61.812C116.258 63.2186 114.929 63.9219 112.896 63.9219H109.221V53.138H109.3ZM111.176 54.779V62.1245H113.052C114.772 62.1245 115.476 61.1868 115.476 59.4676V57.4359C115.476 55.5604 114.616 54.779 113.052 54.779H111.176Z" fill="#58C7D5"/>
<path d="M137.211 53.138H141.12C142.918 53.138 144.169 53.8413 144.795 55.1697C145.107 55.7167 145.186 56.8107 145.186 58.3736C145.186 60.0928 145.029 61.1868 144.795 61.812C144.169 63.2186 142.84 63.9219 140.807 63.9219H137.133V53.138H137.211ZM139.087 54.779V62.1245H140.964C142.684 62.1245 143.387 61.1868 143.387 59.4676V57.4359C143.387 55.5604 142.527 54.779 140.964 54.779H139.087Z" fill="#58C7D5"/>
<path d="M161.448 63.9219H154.255V53.138H161.448V54.8571H156.131V57.6703H160.666V59.3114H156.131V62.2027H161.448V63.9219Z" fill="#58C7D5"/>
<path d="M177.241 63.9219H170.048V53.138H171.924V62.2027H177.241V63.9219Z" fill="#58C7D5"/>
<path d="M187.717 63.9219H185.841V53.138H187.717V63.9219Z" fill="#58C7D5"/>
<path d="M204.761 53.138L201.086 63.9219H199.523L195.848 53.138H197.881L199.445 58.061L200.305 60.8742H200.383L201.243 58.061L202.728 53.138H204.761Z" fill="#58C7D5"/>
<path d="M220.163 63.9219H212.97V53.138H220.163V54.8571H214.847V57.6703H219.381V59.3114H214.847V62.2027H220.163V63.9219Z" fill="#58C7D5"/>
<path d="M236.66 63.9219H234.549L232.672 59.4676H230.64V63.9219H228.763V53.138H233.376C234.314 53.138 235.096 53.4505 235.721 53.9976C236.347 54.5446 236.66 55.326 236.66 56.2637C236.66 57.5922 235.878 58.7643 234.471 59.2332L236.66 63.9219ZM233.063 54.779H230.64V57.7485H232.985C234.001 57.7485 234.705 57.2015 234.705 56.1856C234.705 55.2479 234.08 54.779 233.063 54.779Z" fill="#58C7D5"/>
<path d="M253 53.138L249.638 59.4676V63.9219H247.84V59.4676L244.478 53.138H246.511L247.84 55.7949L248.778 57.9048L249.716 55.7949L250.967 53.138H253Z" fill="#58C7D5"/>
</g>
<defs>
<clipPath id="clip0_924_368">
<rect width="253" height="64" fill="white"/>
</clipPath>
</defs>
</svg>
